<svg xmlns="http://www.w3.org/2000/svg" viewBox="0 0 150 76" width="150" height="76" role="img" aria-label="Domain Hunter">
  <title>Domain Hunter</title>

  <g fill="none" stroke="#111" stroke-width="2.4" stroke-linecap="round" stroke-linejoin="round">

    <!-- ── LEFT PRONG ── -->
    <line x1="17" y1="22" x2="17" y2="46"/>
    <!-- left tip: diverging /\ -->
    <polyline points="13,28  17,22  21,28"/>

    <!-- ── CENTER PRONG (tallest) ── -->
    <line x1="33" y1="10" x2="33" y2="52"/>
    <!-- center tip -->
    <polyline points="29,16  33,10  37,16"/>

    <!-- ── RIGHT PRONG ── -->
    <line x1="49" y1="22" x2="49" y2="46"/>
    <!-- right tip -->
    <polyline points="45,28  49,22  53,28"/>

    <!-- ── CURVED BASE (ψ arc) — smooth cubic bezier ── -->
    <path d="M 17,46 C 17,60 33,60 33,60 C 33,60 49,60 49,46"/>

    <!-- ── HANDLE ── -->
    <line x1="33" y1="59" x2="33" y2="65"/>

    <!-- ── T-CROSSBAR ── -->
    <line x1="24" y1="65" x2="42" y2="65"/>
    <!-- crossbar feet (upward ticks, like original) -->
    <line x1="24" y1="61" x2="24" y2="69"/>
    <line x1="42" y1="61" x2="42" y2="69"/>

  </g>

  <!-- DH text — vertically centered with trident -->
  <text x="60" y="60"
        font-family="'Liberation Mono','Courier New',Courier,monospace"
        font-size="64"
        font-weight="700"
        fill="#111"
        letter-spacing="2">DH</text>

</svg>
