<?xml version="1.0" standalone="no"?>
<!DOCTYPE svg PUBLIC "-//W3C//DTD SVG 20010904//EN"
 "http://www.w3.org/TR/2001/REC-SVG-20010904/DTD/svg10.dtd">
<svg version="1.0" xmlns="http://www.w3.org/2000/svg"
 width="263.000000pt" height="309.000000pt" viewBox="0 0 263.000000 309.000000"
 preserveAspectRatio="xMidYMid meet">
<metadata>
Created by potrace 1.10, written by Peter Selinger 2001-2011
</metadata>
<g transform="translate(0.000000,309.000000) scale(0.100000,-0.100000)"
fill="#000000" stroke="none">
<path d="M287 3073 c-5 -8 -272 -591 -284 -620 -4 -10 16 -13 81 -13 l86 0 0
-334 c0 -367 7 -441 60 -598 73 -219 214 -411 405 -556 130 -98 354 -191 501
-208 57 -7 57 -7 57 -69 0 -48 17 -45 -313 -45 l-310 0 0 -125 0 -125 310 0
310 0 0 -185 0 -185 130 0 c72 0 129 3 129 8 -1 4 -1 87 0 185 l1 177 320 0
320 0 0 125 0 125 -322 2 -322 3 0 49 0 50 89 17 c310 61 569 235 743 499 133
201 190 413 191 701 0 63 0 198 1 302 l0 187 81 0 c61 0 80 3 76 13 -31 73
-280 614 -286 620 -4 4 -73 -137 -153 -313 l-146 -320 89 0 89 0 -5 -327 c-6
-365 -8 -388 -37 -488 -92 -317 -371 -571 -690 -629 l-38 -7 0 725 0 725 79 3
79 3 -142 313 c-79 173 -147 313 -151 314 -5 0 -72 -141 -150 -314 l-142 -313
83 -3 84 -3 0 -724 c0 -585 -2 -725 -13 -725 -23 0 -130 30 -187 52 -222 86
-422 286 -508 508 -54 137 -55 153 -60 533 l-4 357 85 0 85 0 -144 317 c-80
174 -146 319 -148 321 -2 2 -6 -1 -9 -5z"/>
</g>
</svg>
